<svg id="Capa_1" data-name="Capa 1" xmlns="http://www.w3.org/2000/svg" viewBox="0 0 200 100"><defs><style>.cls-1{fill:#343434;}.cls-2{fill:#058f39;}.cls-3{fill:#ffd803;}.cls-4{fill:#e62e38;}.cls-5{fill:#2f6cb3;}</style></defs><title>marca_logo</title><rect class="cls-1" x="105.93" y="43.12" width="6.46" height="27.88"/><path class="cls-1" d="M130.63,68.3l.76-.24A3.94,3.94,0,0,0,135,70.52c2,0,3.28-1,3.28-3s-1.61-3-3.36-3.68-3.85-1.66-3.85-4c0-1.72,1.33-3,3.75-3a3.61,3.61,0,0,1,3.61,2.28l-.71.22a2.94,2.94,0,0,0-3-1.81c-1.84,0-2.94.91-2.94,2.38,0,1.79,1.71,2.54,3.42,3.24s3.79,1.85,3.79,4.39c0,2.34-1.69,3.67-4.05,3.67A4.74,4.74,0,0,1,130.63,68.3Z"/><path class="cls-1" d="M141.81,65.9c0-3.38,1.71-5.3,4.07-5.3,2.16,0,3.67,1.61,3.67,5.3v.22h-7c.1,3,1.33,4.38,3.36,4.38a3.78,3.78,0,0,0,2.38-.85l.42.52a4.55,4.55,0,0,1-2.86,1C143.3,71.22,141.81,69.17,141.81,65.9Zm7-.44c0-3.41-1.71-4.21-2.92-4.21-1.81,0-3.14,1.27-3.3,4.21Z"/><path class="cls-1" d="M154.79,74.57c3-.16,4.11-1.23,4.11-3.21v-2a3.22,3.22,0,0,1-3,1.91c-2.09,0-3.89-1.79-3.89-5.32,0-3.34,1.6-5.3,4-5.3a3.27,3.27,0,0,1,3,1.71V60.84h.72v10.6c0,2.9-2.24,3.61-4.45,3.77Zm4.11-6.25V63.26a3.39,3.39,0,0,0-3-1.95c-2.07,0-3.2,1.65-3.2,4.59s1.43,4.6,3.14,4.6A3.51,3.51,0,0,0,158.9,68.32Z"/><path class="cls-1" d="M169.69,69.27a3.14,3.14,0,0,1-3,2c-2.15,0-3.28-1.35-3.28-4.19V60.84h.72v6.35c0,2.46,1,3.37,2.6,3.37s2.94-1,2.94-3.83V60.84h.71V71h-.71Z"/><path class="cls-1" d="M174.31,60.84H175V63a3.24,3.24,0,0,1,3-2.4,2,2,0,0,1,1.35.41l-.11.72a2.58,2.58,0,0,0-1.33-.34c-1.24,0-2.88,1-2.88,4V71h-.72Z"/><path class="cls-1" d="M181,65.92c0-3.34,1.61-5.32,4-5.32s4,1.92,4,5.3-1.6,5.32-4,5.32S181,69.29,181,65.92Zm7.25,0c0-2.88-1.13-4.59-3.24-4.59s-3.23,1.63-3.23,4.61,1.13,4.58,3.23,4.58S188.27,68.8,188.27,65.9Z"/><path class="cls-1" d="M191.7,69.69l.56-.48a3.66,3.66,0,0,0,2.62,1.33c1.41,0,2.32-.63,2.32-1.94s-1.35-2.11-2.78-2.64c-1.66-.62-2.76-1.35-2.76-2.86s1.12-2.5,3-2.5a4.05,4.05,0,0,1,2.92,1.25l-.54.46a3.44,3.44,0,0,0-2.4-1c-1.41,0-2.22.74-2.22,1.83,0,1.31,1.15,1.75,2.48,2.28,1.73.7,3.06,1.31,3.06,3.22,0,1.55-1.07,2.62-3,2.62A4.26,4.26,0,0,1,191.7,69.69Z"/><path class="cls-1" d="M109.14,33.11a3.55,3.55,0,1,0,3.55,3.55,3.55,3.55,0,0,0-3.55-3.55M92.6,49.47a7.7,7.7,0,0,1,5.77,2.69l4.44-4.68a13.88,13.88,0,0,0-10.17-4.34A14.07,14.07,0,0,0,78.71,57.3v.09A14,14,0,0,0,92.6,71.55a13.61,13.61,0,0,0,10-4.18L98,62.93a7.41,7.41,0,0,1-5.31,2.3,7.7,7.7,0,0,1-7.48-7.88v-.09a7.52,7.52,0,0,1,7.39-7.79M72.66,52a9.52,9.52,0,0,0,2.69-6.72c0-5.62-3-10.28-11.87-10.28H50.9V71H63.72c9.46,0,12.73-4.8,12.73-10.86A9.63,9.63,0,0,0,72.66,52M57.38,41.38h6.24c4,0,4.71,1.92,4.71,3.89s-.81,3.94-4.32,3.94H57.38Zm6.53,23.25H57.38v-9H64c4,0,5.48,1.44,5.48,4.56,0,2.21-1,4.47-5.58,4.47"/><path class="cls-2" d="M32.68,54.42s5.45,1.44,3.74,9.1h0a3.76,3.76,0,0,0-.09,1.26,4.1,4.1,0,0,0,8.18-.69c-.38-5.33-10.41-11.84-11.77-11.67,0,0-.78,0-.81,1a1,1,0,0,0,.74,1"/><path class="cls-3" d="M31,56.93s3.56.94,2.44,6h0s-1.18,4.71-8.71,5.95c-8.54,1.41-8.41-1.72-8.41-1.72-.07-1.55-.66-3.43,7.82-8.57,0,0,4.28-2.6,6.85-1.61"/><path class="cls-4" d="M2.51,69.74a5.07,5.07,0,0,0,4.26,4.81,4.7,4.7,0,0,0,1,0,5.07,5.07,0,0,0,4.87-5.23c0-3.65,1.65-6.4,5-8.92A126,126,0,0,1,30.9,52.2c7.48-4,12.35-8.69,13.43-12.52l0-.12a4.28,4.28,0,0,0,.16-1.45,5.07,5.07,0,0,0-4.26-4.81,5.49,5.49,0,0,0-1-.06,5.07,5.07,0,0,0-4.87,5.24c0,3.84-2.32,6.38-5.44,9.37a63.08,63.08,0,0,1-12.82,7.8c-7.49,4-12.36,8.69-13.44,12.51l0,.12a4.37,4.37,0,0,0-.16,1.46"/><path class="cls-5" d="M10.47,33.76c.42,6.79,9.83,14.65,15.61,17.85a6.66,6.66,0,0,0,4.35.82c2.66-1.18-.18-2.24-.18-2.24s-9.15-2.51-6.18-15.36h0a7.08,7.08,0,0,0,.17-2.12,6.9,6.9,0,0,0-13.77,1"/></svg>